<svg width="20" height="20" viewBox="0 0 20 20" fill="none" xmlns="http://www.w3.org/2000/svg">
<path d="M20 13.8452C18.0624 14.7216 15.9038 14.9867 13.8117 14.6054C11.7196 14.224 9.79326 13.2142 8.28957 11.7104C6.78584 10.2067 5.77603 8.28053 5.39466 6.18836C5.01329 4.09625 5.27847 1.9376 6.15488 0C4.61234 0.697105 3.26192 1.75803 2.21951 3.09175C1.17709 4.42547 0.473798 5.99217 0.169956 7.65747C-0.133886 9.32274 -0.0292125 11.0368 0.475009 12.6527C0.97924 14.2686 1.86796 15.7381 3.06491 16.9351C4.26187 18.132 5.73135 19.0207 7.34726 19.5249C8.96316 20.0292 10.6773 20.1339 12.3425 19.83C14.0078 19.5262 15.5745 18.8229 16.9082 17.7805C18.242 16.7381 19.3028 15.3877 20 13.8452Z" fill="black"/>
</svg>
