<svg width="25" height="25" viewBox="0 0 25 25" fill="none" xmlns="http://www.w3.org/2000/svg">
<circle cx="12.5" cy="12.5" r="12.5" fill="#282C33"/>
<g clip-path="url(#clip0_634_29)">
<path d="M12.697 9.91672C12.6086 9.60948 12.4845 9.33802 12.3245 9.10234C12.1646 8.86244 11.9689 8.66041 11.7374 8.49627C11.5101 8.32792 11.2492 8.19956 10.9546 8.11117C10.6642 8.02278 10.3422 7.97859 9.98865 7.97859C9.32789 7.97859 8.74708 8.14274 8.24623 8.47101C7.7496 8.7993 7.3624 9.27699 7.08462 9.9041C6.80684 10.527 6.66795 11.2888 6.66795 12.1894C6.66795 13.0901 6.80473 13.8562 7.0783 14.4874C7.35188 15.1187 7.73908 15.6006 8.23992 15.9332C8.74076 16.2614 9.33209 16.4256 10.0139 16.4256C10.6326 16.4256 11.1608 16.3162 11.5985 16.0973C12.0404 15.8742 12.3771 15.5606 12.6086 15.1566C12.8443 14.7526 12.9621 14.2748 12.9621 13.7235L13.5177 13.8056H10.1844V11.7475H15.5947V13.3763C15.5947 14.5127 15.3548 15.4892 14.875 16.3056C14.3952 17.1179 13.7344 17.7451 12.8927 18.1869C12.0509 18.6246 11.0871 18.8435 10.0013 18.8435C8.78916 18.8435 7.72434 18.5763 6.80684 18.0417C5.88933 17.5031 5.17384 16.7392 4.66038 15.7501C4.15111 14.7568 3.89648 13.5784 3.89648 12.2147C3.89648 11.1667 4.048 10.2324 4.35103 9.41167C4.65826 8.58676 5.08756 7.8881 5.63891 7.31571C6.19025 6.74332 6.83209 6.30771 7.56441 6.00889C8.29674 5.71007 9.09009 5.56067 9.94446 5.56067C10.6768 5.56067 11.3586 5.66799 11.9899 5.88264C12.6212 6.09307 13.181 6.39189 13.6692 6.7791C14.1617 7.1663 14.5636 7.62716 14.875 8.16167C15.1865 8.69198 15.3864 9.27699 15.4748 9.91672H12.697Z" fill="#F4F4F4"/>
<path d="M19.773 18.9038C20.0998 18.9038 20.4062 18.8422 20.6921 18.7191C20.9781 18.5958 21.2232 18.4315 21.4276 18.2262C21.6318 18.0208 21.7952 17.7745 21.9178 17.4871C22.0403 17.1995 22.1016 16.8915 22.1016 16.5629C22.1016 16.2345 22.0403 15.9265 21.9178 15.6389C21.7952 15.3515 21.6318 15.1051 21.4276 14.8997C21.2232 14.6944 20.9781 14.5302 20.6921 14.4069C20.4062 14.2837 20.0998 14.2222 19.773 14.2222C19.4461 14.2222 19.1398 14.2837 18.8538 14.4069C18.5678 14.5302 18.3227 14.6944 18.1184 14.8997C17.9141 15.1051 17.7508 15.3515 17.6282 15.6389C17.5057 15.9265 17.4443 16.2345 17.4443 16.5629C17.4443 16.8915 17.5057 17.1995 17.6282 17.4871C17.7508 17.7745 17.9141 18.0208 18.1184 18.2262C18.3227 18.4315 18.5678 18.5958 18.8538 18.7191C19.1398 18.8422 19.4461 18.9038 19.773 18.9038Z" fill="#E72144"/>
</g>
<defs>
<clipPath id="clip0_634_29">
<rect width="20" height="20" fill="white" transform="translate(3 2)"/>
</clipPath>
</defs>
</svg>
