<svg width="18" height="18" viewBox="0 0 18 18" fill="none" xmlns="http://www.w3.org/2000/svg">
    <path d="M8.72727 7.125C8.64773 6.84848 8.53599 6.60417 8.39205 6.39205C8.24811 6.17614 8.07197 5.99432 7.86364 5.84659C7.65909 5.69508 7.42424 5.57955 7.15909 5.5C6.89773 5.42045 6.60795 5.38068 6.28977 5.38068C5.69508 5.38068 5.17235 5.52841 4.72159 5.82386C4.27462 6.11932 3.92614 6.54924 3.67614 7.11364C3.42614 7.67424 3.30114 8.35985 3.30114 9.17045C3.30114 9.98106 3.42424 10.6705 3.67045 11.2386C3.91667 11.8068 4.26515 12.2405 4.71591 12.5398C5.16667 12.8352 5.69886 12.983 6.3125 12.983C6.86932 12.983 7.3447 12.8845 7.73864 12.6875C8.13636 12.4867 8.43939 12.2045 8.64773 11.8409C8.85985 11.4773 8.96591 11.0473 8.96591 10.5511L9.46591 10.625H6.46591V8.77273H11.3352V10.2386C11.3352 11.2614 11.1193 12.1402 10.6875 12.875C10.2557 13.6061 9.66098 14.1705 8.90341 14.5682C8.14583 14.9621 7.27841 15.1591 6.30114 15.1591C5.21023 15.1591 4.25189 14.9186 3.42614 14.4375C2.60038 13.9527 1.95644 13.2652 1.49432 12.375C1.03598 11.4811 0.806818 10.4205 0.806818 9.19318C0.806818 8.25 0.943182 7.40909 1.21591 6.67045C1.49242 5.92803 1.87879 5.29924 2.375 4.78409C2.87121 4.26894 3.44886 3.87689 4.10795 3.60795C4.76705 3.33901 5.48106 3.20455 6.25 3.20455C6.90909 3.20455 7.52273 3.30114 8.09091 3.49432C8.65909 3.68371 9.16288 3.95265 9.60227 4.30114C10.0455 4.64962 10.4072 5.06439 10.6875 5.54545C10.9678 6.02273 11.1477 6.54924 11.2273 7.125H8.72727Z" fill="#F4F4F4"/>
    <path d="M15.0958 15.2135C15.3899 15.2135 15.6657 15.158 15.923 15.0472C16.1804 14.9363 16.401 14.7884 16.5849 14.6036C16.7687 14.4188 16.9158 14.1971 17.0261 13.9384C17.1364 13.6796 17.1915 13.4024 17.1915 13.1067C17.1915 12.8111 17.1364 12.5339 17.0261 12.2751C16.9158 12.0164 16.7687 11.7946 16.5849 11.6098C16.401 11.425 16.1804 11.2772 15.923 11.1663C15.6657 11.0554 15.3899 11 15.0958 11C14.8016 11 14.5259 11.0554 14.2685 11.1663C14.0111 11.2772 13.7905 11.425 13.6067 11.6098C13.4228 11.7946 13.2758 12.0164 13.1655 12.2751C13.0552 12.5339 13 12.8111 13 13.1067C13 13.4024 13.0552 13.6796 13.1655 13.9384C13.2758 14.1971 13.4228 14.4188 13.6067 14.6036C13.7905 14.7884 14.0111 14.9363 14.2685 15.0472C14.5259 15.158 14.8016 15.2135 15.0958 15.2135Z" fill="#E72144"/>
</svg>
