<svg width="18" height="18" viewBox="0 0 18 18" fill="none" xmlns="http://www.w3.org/2000/svg">
<path fill-rule="evenodd" clip-rule="evenodd" d="M9 6.75C7.75736 6.75 6.75 7.75736 6.75 9C6.75 10.2426 7.75736 11.25 9 11.25C10.2426 11.25 11.25 10.2426 11.25 9C11.25 7.75736 10.2426 6.75 9 6.75ZM5.625 9C5.625 7.13604 7.13604 5.625 9 5.625C10.864 5.625 12.375 7.13604 12.375 9C12.375 10.864 10.864 12.375 9 12.375C7.13604 12.375 5.625 10.864 5.625 9Z" fill="currentColor"/>
<path fill-rule="evenodd" clip-rule="evenodd" d="M5.90625 3.09375C4.35295 3.09375 3.09375 4.35295 3.09375 5.90625V12.0938C3.09375 13.6471 4.35295 14.9062 5.90625 14.9062H12.0938C13.6471 14.9062 14.9062 13.6471 14.9062 12.0938V5.90625C14.9062 4.35295 13.6471 3.09375 12.0938 3.09375H5.90625ZM1.96875 5.90625C1.96875 3.73163 3.73163 1.96875 5.90625 1.96875H12.0938C14.2684 1.96875 16.0312 3.73163 16.0312 5.90625V12.0938C16.0312 14.2684 14.2684 16.0312 12.0938 16.0312H5.90625C3.73163 16.0312 1.96875 14.2684 1.96875 12.0938V5.90625Z" fill="currentColor"/>
<path d="M12.6562 6.1875C13.1222 6.1875 13.5 5.80974 13.5 5.34375C13.5 4.87776 13.1222 4.5 12.6562 4.5C12.1903 4.5 11.8125 4.87776 11.8125 5.34375C11.8125 5.80974 12.1903 6.1875 12.6562 6.1875Z" fill="currentColor"/>
</svg>
