<svg width="18" height="18" viewBox="0 0 18 18" fill="none" xmlns="http://www.w3.org/2000/svg">
<path fill-rule="evenodd" clip-rule="evenodd" d="M1.96875 3.09375C1.96875 2.47243 2.47243 1.96875 3.09375 1.96875H14.9062C15.5276 1.96875 16.0312 2.47243 16.0312 3.09375V14.9062C16.0312 15.5276 15.5276 16.0312 14.9062 16.0312H3.09375C2.47243 16.0312 1.96875 15.5276 1.96875 14.9062V3.09375ZM14.9062 3.09375H3.09375V14.9062H14.9062V3.09375Z" fill="currentColor"/>
<path fill-rule="evenodd" clip-rule="evenodd" d="M8.4375 7.3125C8.74816 7.3125 9 7.56434 9 7.875V12.375C9 12.6857 8.74816 12.9375 8.4375 12.9375C8.12684 12.9375 7.875 12.6857 7.875 12.375V7.875C7.875 7.56434 8.12684 7.3125 8.4375 7.3125Z" fill="currentColor"/>
<path fill-rule="evenodd" clip-rule="evenodd" d="M6.1875 7.3125C6.49816 7.3125 6.75 7.56434 6.75 7.875V12.375C6.75 12.6857 6.49816 12.9375 6.1875 12.9375C5.87684 12.9375 5.625 12.6857 5.625 12.375V7.875C5.625 7.56434 5.87684 7.3125 6.1875 7.3125Z" fill="currentColor"/>
<path fill-rule="evenodd" clip-rule="evenodd" d="M10.4062 8.4375C10.0333 8.4375 9.6756 8.58566 9.41188 8.84938C9.14816 9.1131 9 9.47079 9 9.84375C9 10.1544 8.74816 10.4062 8.4375 10.4062C8.12684 10.4062 7.875 10.1544 7.875 9.84375C7.875 9.17242 8.14168 8.52859 8.61639 8.05389C9.09109 7.57918 9.73492 7.3125 10.4062 7.3125C11.0776 7.3125 11.7214 7.57918 12.1961 8.05389C12.6708 8.52859 12.9375 9.17242 12.9375 9.84375V12.375C12.9375 12.6857 12.6857 12.9375 12.375 12.9375C12.0643 12.9375 11.8125 12.6857 11.8125 12.375V9.84375C11.8125 9.47079 11.6643 9.1131 11.4006 8.84938C11.1369 8.58566 10.7792 8.4375 10.4062 8.4375Z" fill="currentColor"/>
<path d="M6.1875 6.46875C6.65349 6.46875 7.03125 6.09099 7.03125 5.625C7.03125 5.15901 6.65349 4.78125 6.1875 4.78125C5.72151 4.78125 5.34375 5.15901 5.34375 5.625C5.34375 6.09099 5.72151 6.46875 6.1875 6.46875Z" fill="currentColor"/>
</svg>
