<svg width="420" height="420" viewBox="0 0 420 420" fill="none" xmlns="http://www.w3.org/2000/svg">
<circle cx="210" cy="210" r="210" fill="#282C33"/>
<g clip-path="url(#clip0_633_20)">
<mask id="mask0_633_20" style="mask-type:luminance" maskUnits="userSpaceOnUse" x="85" y="66" width="250" height="288">
<path d="M334.95 66H85V353.8H334.95V66Z" fill="white"/>
</mask>
<g mask="url(#mask0_633_20)">
<path d="M86.3 353.19C87.62 353.34 88.33 353.5 89.03 353.49C107.45 353.49 125.86 353.46 144.28 353.44C146.75 353.44 148.64 352.23 149.94 350.32C151.92 347.4 153.57 344.27 155.5 341.32C159.15 335.77 162.91 330.28 166.61 324.76C168.84 321.43 171.08 318.1 173.26 314.74C177.24 308.62 181.15 302.46 185.16 296.36C188.09 291.91 191.21 287.6 194.11 283.14C197.42 278.06 200.51 272.83 203.83 267.75C207.79 261.69 211.89 255.73 215.92 249.71C219.32 244.63 222.75 239.56 226.09 234.44C230.12 228.25 234 221.96 238.09 215.81C239.75 213.31 239.94 210.88 238.45 208.41C235.95 204.28 233.36 200.19 230.7 196.16C226.4 189.67 221.94 183.28 217.69 176.76C211.81 167.75 206.1 158.64 200.25 149.61C196.66 144.07 192.93 138.63 189.32 133.1C182.3 122.33 175.35 111.51 168.33 100.74C161.67 90.5103 154.96 80.3203 148.27 70.1103C146.74 67.7703 144.92 66.3303 141.79 66.3503C123.88 66.4803 105.96 66.4103 88.04 66.4303C87.1 66.4303 86.17 66.6403 85.01 66.7803C85.28 67.5003 85.35 67.9003 85.56 68.2303C91.63 77.7503 97.69 87.2703 103.83 96.7203C110.32 106.72 116.93 116.65 123.44 126.64C129.2 135.49 134.89 144.39 140.61 153.26C145.29 160.53 149.94 167.82 154.67 175.05C157.86 179.93 161.22 184.7 164.42 189.58C168.55 195.88 172.69 202.19 176.61 208.63C177.33 209.81 177.34 211.74 177 213.15C176.66 214.57 175.47 215.79 174.65 217.1C172.61 220.33 170.59 223.58 168.52 226.79C166.23 230.34 163.88 233.85 161.58 237.39C159.05 241.3 156.59 245.26 154.04 249.15C150.74 254.2 147.35 259.19 144.04 264.24C139.04 271.87 134.08 279.51 129.12 287.16C125.54 292.68 122.02 298.24 118.43 303.75C115.73 307.9 112.98 312.02 110.24 316.15C107.47 320.33 104.66 324.49 101.91 328.7C98.49 333.94 95.1 339.21 91.73 344.49C89.98 347.23 88.28 350.01 86.3 353.2V353.19ZM334.95 66.3703C334 66.1903 333.52 66.0203 333.05 66.0203C313.72 66.0103 294.38 65.9703 275.05 66.0903C273.9 66.0903 272.38 67.1103 271.67 68.1103C269.27 71.4803 267.21 75.0903 264.93 78.5503C261.53 83.7303 257.98 88.8203 254.62 94.0303C250.69 100.12 246.96 106.33 243.03 112.41C238.83 118.9 234.44 125.28 230.29 131.8C229.75 132.65 229.67 134.32 230.14 135.21C231.62 138.03 233.44 140.67 235.17 143.35C241.04 152.45 246.92 161.53 252.82 170.61C254.72 173.54 256.62 176.48 258.68 179.29C259.32 180.16 260.37 182.26 261.55 179.38C262.15 177.91 263.34 176.67 264.26 175.33C266.61 171.91 269.04 168.55 271.31 165.07C276.64 156.9 281.87 148.67 287.17 140.49C290.5 135.36 293.95 130.32 297.25 125.18C300.5 120.11 303.56 114.92 306.83 109.87C311.03 103.38 315.33 96.9703 319.62 90.5403C324.05 83.9003 328.54 77.3003 332.93 70.6403C333.74 69.4003 334.22 67.9403 334.94 66.3803L334.95 66.3703ZM261.7 243.28C260.33 245.23 259.34 246.56 258.43 247.94C256.07 251.49 253.73 255.06 251.4 258.63C249.36 261.76 247.38 264.92 245.31 268.03C243.08 271.38 240.74 274.65 238.55 278.03C236.44 281.29 234.64 284.76 232.35 287.88C230.72 290.11 230.44 291.76 232.08 294.19C238.02 303 243.69 312 249.51 320.89C256.15 331.05 262.89 341.14 269.48 351.34C270.66 353.16 271.96 353.82 274.1 353.81C292.59 353.74 311.07 353.77 329.56 353.76C330.53 353.76 331.5 353.66 332.84 353.59C332.43 352.44 332.28 351.53 331.82 350.82C327.18 343.6 322.51 336.4 317.79 329.22C313.43 322.59 308.97 316.04 304.63 309.4C298.23 299.61 291.93 289.75 285.54 279.96C281.32 273.5 276.96 267.12 272.75 260.66C269.16 255.15 265.68 249.56 261.69 243.29L261.7 243.28Z" fill="#C1925A"/>
<path d="M86.3 353.189C88.28 350.009 89.98 347.229 91.73 344.479C95.1 339.209 98.49 333.939 101.91 328.689C104.65 324.489 107.47 320.329 110.24 316.139C112.98 312.009 115.73 307.889 118.43 303.739C122.01 298.219 125.54 292.669 129.12 287.149C134.08 279.499 139.04 271.849 144.04 264.229C147.35 259.179 150.74 254.189 154.04 249.139C156.59 245.239 159.05 241.289 161.58 237.379C163.87 233.829 166.23 230.329 168.52 226.779C170.59 223.569 172.61 220.319 174.65 217.089C175.47 215.789 176.66 214.569 177 213.139C177.34 211.719 177.33 209.799 176.61 208.619C172.7 202.179 168.56 195.879 164.42 189.569C161.22 184.689 157.86 179.919 154.67 175.039C149.94 167.809 145.29 160.519 140.61 153.249C134.89 144.369 129.2 135.479 123.44 126.629C116.94 116.639 110.33 106.709 103.83 96.7093C97.69 87.2693 91.63 77.7493 85.55 68.2494C85.34 67.9294 85.27 67.5194 85 66.7993C86.15 66.6593 87.09 66.4493 88.03 66.4493C105.95 66.4293 123.86 66.4993 141.78 66.3693C144.91 66.3493 146.73 67.7894 148.26 70.1294C154.95 80.3393 161.66 90.5293 168.32 100.759C175.34 111.529 182.29 122.349 189.31 133.119C192.91 138.649 196.65 144.089 200.24 149.629C206.08 158.659 211.8 167.769 217.68 176.779C221.93 183.299 226.4 189.679 230.69 196.179C233.35 200.209 235.94 204.289 238.44 208.429C239.93 210.899 239.74 213.329 238.08 215.829C233.99 221.979 230.12 228.269 226.08 234.459C222.74 239.579 219.31 244.649 215.91 249.729C211.88 255.739 207.78 261.709 203.82 267.769C200.5 272.849 197.41 278.069 194.1 283.159C191.2 287.619 188.07 291.939 185.15 296.379C181.14 302.469 177.23 308.639 173.25 314.759C171.06 318.119 168.83 321.449 166.6 324.779C162.9 330.299 159.14 335.779 155.49 341.339C153.55 344.289 151.91 347.419 149.93 350.339C148.63 352.249 146.74 353.459 144.27 353.459C125.85 353.479 107.44 353.499 89.02 353.509C88.31 353.509 87.61 353.359 86.29 353.209L86.3 353.189Z" fill="#C1925A"/>
<path d="M334.95 66.3694C334.22 67.9294 333.75 69.3894 332.94 70.6294C328.55 77.2894 324.06 83.8894 319.63 90.5294C315.34 96.9594 311.04 103.379 306.84 109.859C303.57 114.919 300.51 120.109 297.26 125.169C293.96 130.309 290.5 135.359 287.18 140.479C281.87 148.659 276.64 156.889 271.32 165.059C269.05 168.529 266.62 171.899 264.27 175.319C263.35 176.659 262.16 177.899 261.56 179.369C260.38 182.239 259.33 180.149 258.69 179.279C256.62 176.469 254.73 173.529 252.83 170.599C246.93 161.519 241.05 152.429 235.18 143.339C233.45 140.659 231.63 138.009 230.15 135.199C229.68 134.309 229.76 132.649 230.3 131.789C234.45 125.269 238.84 118.899 243.04 112.399C246.97 106.319 250.7 100.109 254.63 94.0194C257.99 88.8094 261.53 83.7194 264.94 78.5394C267.21 75.0794 269.28 71.4694 271.68 68.0994C272.39 67.0994 273.91 66.0894 275.06 66.0794C294.38 65.9694 313.71 65.9994 333.05 66.0194C333.52 66.0194 333.99 66.1894 334.95 66.3694Z" fill="white"/>
<path d="M261.69 243.27C265.68 249.54 269.15 255.13 272.75 260.64C276.97 267.11 281.32 273.48 285.54 279.94C291.93 289.73 298.23 299.59 304.63 309.38C308.97 316.02 313.43 322.57 317.79 329.2C322.51 336.37 327.17 343.58 331.82 350.8C332.28 351.51 332.43 352.42 332.84 353.57C331.5 353.64 330.53 353.74 329.56 353.74C311.07 353.74 292.59 353.71 274.1 353.79C271.96 353.79 270.65 353.14 269.48 351.32C262.89 341.13 256.16 331.03 249.51 320.87C243.69 311.97 238.01 302.98 232.08 294.17C230.44 291.74 230.72 290.09 232.35 287.86C234.64 284.74 236.43 281.26 238.55 278.01C240.74 274.64 243.09 271.37 245.31 268.01C247.37 264.9 249.36 261.74 251.4 258.61C253.73 255.04 256.07 251.47 258.43 247.92C259.35 246.54 260.33 245.21 261.7 243.26L261.69 243.27Z" fill="white"/>
</g>
</g>
<defs>
<clipPath id="clip0_633_20">
<rect width="250" height="288" fill="white" transform="translate(85 66)"/>
</clipPath>
</defs>
</svg>
