<svg width="18" height="18" viewBox="0 0 18 18" fill="none" xmlns="http://www.w3.org/2000/svg">
<path fill-rule="evenodd" clip-rule="evenodd" d="M15.1178 2.0349C15.3077 1.96125 15.5141 1.94058 15.7149 1.97508C15.9157 2.00958 16.1034 2.09796 16.2579 2.23079C16.4124 2.36362 16.5279 2.53591 16.5921 2.72927C16.6563 2.92263 16.6668 3.12979 16.6225 3.32865L16.6218 3.3318L16.6217 3.3318L13.978 14.8771L13.9779 14.8774C13.9343 15.0676 13.8419 15.2431 13.7099 15.3868C13.5779 15.5305 13.4107 15.6374 13.2249 15.697C13.0391 15.7566 12.841 15.7668 12.65 15.7266C12.4595 15.6866 12.2826 15.5977 12.1366 15.4688C12.1363 15.4686 12.136 15.4683 12.1357 15.468L5.92905 10.007L2.32913 9.2843L2.32681 9.28383C1.24553 9.06203 1.07937 7.54745 2.13616 7.1333L2.3414 7.65701L2.13578 7.13345L2.13616 7.1333L15.1155 2.0358L15.1178 2.0349ZM2.55018 8.17935C2.55028 8.18002 2.55039 8.18066 2.55052 8.18125C2.55106 8.18138 2.55164 8.18151 2.55226 8.18165C2.55246 8.18169 2.55267 8.18173 2.55287 8.18178L6.29821 8.93365C6.395 8.95308 6.48496 8.99763 6.55907 9.06284L12.8802 14.6246L12.8814 14.6257L15.5244 3.08383L2.55018 8.17935ZM2.54482 8.17949C2.54482 8.17949 2.54483 8.1795 2.54485 8.17951L2.54482 8.17949Z" fill="currentColor"/>
<path fill-rule="evenodd" clip-rule="evenodd" d="M16.213 2.24409C16.3949 2.49593 16.3382 2.84754 16.0864 3.02943L6.51685 9.94115C6.26501 10.123 5.9134 10.0663 5.7315 9.8145C5.54961 9.56266 5.60631 9.21105 5.85815 9.02916L15.4277 2.11744C15.6795 1.93554 16.0311 1.99224 16.213 2.24409Z" fill="currentColor"/>
<path fill-rule="evenodd" clip-rule="evenodd" d="M6.1875 8.92267C6.49816 8.92267 6.75 9.17451 6.75 9.48517L6.75 14.0616L6.75302 14.0585L8.94678 11.8648C9.16645 11.6451 9.52261 11.6451 9.74228 11.8648C9.96195 12.0844 9.96195 12.4406 9.74228 12.6603L7.54979 14.8527C7.39352 15.0107 7.19396 15.1189 6.97627 15.1636C6.75775 15.2085 6.53083 15.1873 6.32433 15.1029C6.11784 15.0185 5.9411 14.8746 5.81658 14.6895C5.69206 14.5045 5.62537 14.2865 5.625 14.0635L5.625 9.48517C5.625 9.17451 5.87684 8.92267 6.1875 8.92267Z" fill="currentColor"/>
</svg>
